<svg width="117" height="117" xmlns="http://www.w3.org/2000/svg" xmlns:xlink="http://www.w3.org/1999/xlink" xml:space="preserve" overflow="hidden"><defs><clipPath id="clip0"><rect x="76" y="19" width="117" height="117"/></clipPath></defs><g clip-path="url(#clip0)" transform="translate(-76 -19)"><path d="M134.5 38.5C112.961 38.5 95.5 55.9609 95.5 77.5L173.5 77.5C173.5 55.9609 156.039 38.5 134.5 38.5Z" fill="#FF4F00"/><path d="M95.5 77.5C95.5 99.0389 112.961 116.5 134.5 116.5 156.039 116.5 173.5 99.0389 173.5 77.5Z" fill="#FFCD00"/><path d="M107.395 89.7577 108.503 89.2273 109.844 92.0353 111.182 91.3957 109.103 87.0511 103.632 89.6641 104.369 91.2046 106.143 90.3583 107.446 93.0844 108.698 92.4877 107.395 89.7577Z"/><path d="M112.617 98.17C111.837 98.8486 110.897 98.8252 110.277 98.092 109.657 97.3588 109.774 96.4462 110.574 95.752 111.373 95.0578 112.293 95.0968 112.913 95.83 113.534 96.5632 113.417 97.4719 112.621 98.17M114.044 94.8823C112.863 93.5547 110.83 93.4358 109.502 94.6167 108.174 95.798 108.055 97.8315 109.237 99.1594 110.4 100.467 112.396 100.605 113.729 99.4687 115.075 98.3935 115.295 96.4302 114.22 95.0839 114.164 95.0141 114.106 94.947 114.044 94.8823"/><path d="M120.269 100.51 118.268 103.454C117.812 104.118 117.258 104.234 116.607 103.778 115.955 103.322 115.827 102.776 116.299 102.113L118.303 99.1684 116.891 98.209 114.797 101.29C113.9 102.608 114.263 103.977 115.772 105.007 117.281 106.036 118.693 105.865 119.582 104.554L121.681 101.477Z"/><path d="M126.166 106.996 126.15 106.988 124.867 102.788 123.21 102.245 121.326 108.006 122.944 108.536 124.064 105.12 124.079 105.128 125.366 109.328 127.02 109.87 128.907 104.11 127.285 103.579 126.166 106.996Z"/><path d="M133.069 109.09 132.176 109.055 132.304 105.935 133.193 105.97C134.223 106.013 134.722 106.551 134.683 107.585 134.644 108.618 134.083 109.113 133.069 109.07M133.435 104.496 130.655 104.387 130.413 110.447 133.174 110.56C135.011 110.634 136.294 109.636 136.388 107.651 136.481 105.666 135.264 104.57 133.435 104.496"/><path d="M139.745 107.842 140.135 105.677 140.135 105.677 141.344 107.522ZM139.047 104.149 137.604 110.623 139.289 110.287 139.465 109.359 142.218 108.805 142.737 109.585 144.429 109.25 140.603 103.829Z"/><path d="M148.138 101.009 142.749 103.408 143.349 104.761 145.256 103.915 147.12 108.103 148.68 107.409 146.82 103.22 148.743 102.366 148.138 101.009Z"/><path d="M149.918 99.5241 151.302 98.5163 154.88 103.429 153.496 104.436Z"/><path d="M157.9 99.0241C157.249 99.7339 156.34 99.7222 155.56 99.0241 154.78 98.326 154.698 97.3978 155.349 96.6841 156.001 95.9704 156.909 95.986 157.689 96.6841 158.469 97.3822 158.551 98.3104 157.9 99.0241M154.257 95.674C153.082 97.007 153.21 99.0401 154.543 100.215 155.876 101.39 157.909 101.262 159.084 99.9293 160.243 98.6158 160.137 96.617 158.848 95.4322 157.617 94.2259 155.642 94.2454 154.436 95.4759 154.373 95.5395 154.314 95.6054 154.257 95.674"/><path d="M159.199 88.5643 162.404 90.1984 162.397 90.214 158.044 90.8341 157.253 92.3863 162.658 95.1436 163.43 93.6187 160.228 91.9885 160.236 91.9729 164.589 91.3489 165.38 89.8006 159.975 87.0433 159.199 88.5643Z"/><path d="M109.782 70.4956 105.862 68.92 105.87 68.9005 110.648 68.3428 110.924 67.6486 107.863 63.9358 107.871 63.9163 111.79 65.488 112.574 63.538 105.539 60.7144 104.696 62.8165 108.167 66.9271 108.159 66.9466 102.809 67.5199 101.962 69.6298 108.998 72.4534 109.782 70.4956Z"/><path d="M108.581 56.862 109.963 55.2421 115.728 60.1604 114.346 61.7804Z"/><path d="M119.395 56.869 116.989 53.0704 117.008 53.0587 122.086 55.1647 123.927 54.0025 119.871 47.5948 118.065 48.7336 120.472 52.5322 120.452 52.5439 115.374 50.4379 113.534 51.6001 117.59 58.0117 119.395 56.869Z"/><path d="M129.43 50.6758 128.33 50.8669 127.659 47.0488 128.759 46.8538C130.027 46.6315 130.783 47.1619 131.002 48.4138 131.22 49.6657 130.678 50.4379 129.442 50.6602M133.119 48.0472C132.698 45.6682 130.928 44.5801 128.673 44.974L125.253 45.5785 126.56 53.0431 129.964 52.4464C132.226 52.0564 133.544 50.4964 133.119 48.0472"/><path d="M142.023 51.1672 138.248 50.5081 138.439 49.3966 141.852 49.9933 142.144 48.3163 138.732 47.7235 138.915 46.69 142.678 47.3452 142.994 45.52 137.129 44.5021 135.83 51.9667 141.707 52.9885 142.023 51.1672Z"/><path d="M148.961 49.9387 150.56 50.8747C151.083 51.1828 151.235 51.5845 150.95 52.0447 150.665 52.5049 150.217 52.5907 149.702 52.2904L148.119 51.37ZM147.214 52.93 148.244 53.5306 148.333 56.2918 150.342 57.4618 150.158 54.4081 150.158 54.3808C151.21 54.5857 152.272 54.0832 152.779 53.1406 153.618 51.7093 153.056 50.2741 151.57 49.4044L148.01 47.3179 144.176 53.8621 146.017 54.9385Z"/><path d="M155.431 57.2941C156.441 56.4556 157.592 56.5141 158.36 57.4267 159.128 58.3393 158.961 59.4937 157.951 60.3283 156.941 61.1629 155.794 61.1083 155.026 60.1996 154.257 59.2909 154.425 58.1326 155.416 57.2941M153.61 61.3813C154.988 63.1227 157.517 63.4171 159.258 62.0392 161 60.661 161.294 58.1322 159.916 56.3909 159.876 56.34 159.834 56.29 159.792 56.2411 158.414 54.4997 155.884 54.2052 154.143 55.5833 152.402 56.9613 152.107 59.4902 153.486 61.2315 153.526 61.2826 153.567 61.3325 153.61 61.3813"/><path d="M163.863 67.2235C164.253 68.3584 163.691 69.3607 162.451 69.7858 161.211 70.2109 160.154 69.7624 159.768 68.6158 159.382 67.4692 159.932 66.4708 161.172 66.0457 162.412 65.6206 163.473 66.073 163.863 67.2157M158.013 69.2164C158.777 71.2994 161.085 72.3684 163.168 71.6048 165.25 70.8407 166.32 68.5327 165.556 66.4501 164.803 64.3983 162.549 63.3247 160.482 64.0333 158.423 64.6678 157.269 66.851 157.904 68.9095 157.936 69.0132 157.973 69.1158 158.013 69.2164"/></g></svg>